<mxfile host="Electron" modified="2023-09-17T21:52:48.161Z" agent="Mozilla/5.0 (Windows NT 10.0; Win64; x64) AppleWebKit/537.36 (KHTML, like Gecko) draw.io/21.7.5 Chrome/114.0.5735.289 Electron/25.8.1 Safari/537.36" etag="uF-FZFWDgKW_pbHMgltA" version="21.7.5" type="device" pages="2">
  <diagram id="NE2P61kQdN3ANFXhl6RE" name="✅ /generate-tokens">
    <mxGraphModel dx="794" dy="1696" grid="1" gridSize="10" guides="1" tooltips="1" connect="1" arrows="1" fold="1" page="1" pageScale="1" pageWidth="827" pageHeight="1169" math="0" shadow="0">
      <root>
        <mxCell id="0" />
        <mxCell id="1" parent="0" />
        <mxCell id="2x6ha-IGVpwOpAQ3rnLN-1" style="edgeStyle=none;curved=1;rounded=0;orthogonalLoop=1;jettySize=auto;html=1;fontSize=12;startSize=8;endSize=8;fontFamily=Helvetica;" parent="1" source="2x6ha-IGVpwOpAQ3rnLN-2" edge="1">
          <mxGeometry relative="1" as="geometry">
            <mxPoint x="164" y="-830" as="targetPoint" />
          </mxGeometry>
        </mxCell>
        <mxCell id="2x6ha-IGVpwOpAQ3rnLN-2" value="Client" style="rounded=0;whiteSpace=wrap;html=1;fontFamily=Helvetica;" parent="1" vertex="1">
          <mxGeometry x="104" y="-1160" width="120" height="40" as="geometry" />
        </mxCell>
        <mxCell id="2x6ha-IGVpwOpAQ3rnLN-3" style="edgeStyle=none;curved=1;rounded=0;orthogonalLoop=1;jettySize=auto;html=1;fontSize=12;startSize=8;endSize=8;fontFamily=Helvetica;" parent="1" source="2x6ha-IGVpwOpAQ3rnLN-4" edge="1">
          <mxGeometry relative="1" as="geometry">
            <mxPoint x="474" y="-830" as="targetPoint" />
          </mxGeometry>
        </mxCell>
        <mxCell id="2x6ha-IGVpwOpAQ3rnLN-4" value="User" style="rounded=0;whiteSpace=wrap;html=1;fontFamily=Helvetica;" parent="1" vertex="1">
          <mxGeometry x="414" y="-1160" width="120" height="40" as="geometry" />
        </mxCell>
        <mxCell id="2x6ha-IGVpwOpAQ3rnLN-5" style="edgeStyle=none;curved=1;rounded=0;orthogonalLoop=1;jettySize=auto;html=1;fontSize=12;startSize=8;endSize=8;fontFamily=Helvetica;" parent="1" source="2x6ha-IGVpwOpAQ3rnLN-6" edge="1">
          <mxGeometry relative="1" as="geometry">
            <mxPoint x="654" y="-830" as="targetPoint" />
          </mxGeometry>
        </mxCell>
        <mxCell id="2x6ha-IGVpwOpAQ3rnLN-6" value="Identity" style="rounded=0;whiteSpace=wrap;html=1;fontFamily=Helvetica;" parent="1" vertex="1">
          <mxGeometry x="594" y="-1160" width="120" height="40" as="geometry" />
        </mxCell>
        <mxCell id="lEz5kVDaH1w6bs4NxDob-1" style="edgeStyle=none;curved=1;rounded=0;orthogonalLoop=1;jettySize=auto;html=1;exitX=1;exitY=1;exitDx=0;exitDy=0;fontSize=12;startSize=8;endSize=8;entryX=0;entryY=0;entryDx=0;entryDy=0;dashed=1;fontFamily=Helvetica;" parent="1" target="lEz5kVDaH1w6bs4NxDob-4" edge="1">
          <mxGeometry relative="1" as="geometry">
            <mxPoint x="624" y="-1081" as="targetPoint" />
            <mxPoint x="174" y="-1080.75" as="sourcePoint" />
          </mxGeometry>
        </mxCell>
        <mxCell id="lEz5kVDaH1w6bs4NxDob-3" value="" style="group;fontFamily=Helvetica;" parent="1" vertex="1" connectable="0">
          <mxGeometry x="644" y="-1080.75" width="170" height="20" as="geometry" />
        </mxCell>
        <mxCell id="lEz5kVDaH1w6bs4NxDob-4" value="9" style="rounded=0;whiteSpace=wrap;html=1;fontSize=16;fontFamily=Helvetica;" parent="lEz5kVDaH1w6bs4NxDob-3" vertex="1">
          <mxGeometry y="0.75" width="20" height="19.25" as="geometry" />
        </mxCell>
        <mxCell id="lEz5kVDaH1w6bs4NxDob-5" value="check if user exists" style="text;html=1;strokeColor=none;fillColor=none;align=left;verticalAlign=middle;whiteSpace=wrap;rounded=0;fontSize=12;fontFamily=Helvetica;" parent="lEz5kVDaH1w6bs4NxDob-3" vertex="1">
          <mxGeometry x="25" width="145" height="20" as="geometry" />
        </mxCell>
        <mxCell id="lEz5kVDaH1w6bs4NxDob-6" value="" style="group;fillColor=#ffcccc;strokeColor=#36393d;fontFamily=Helvetica;" parent="1" vertex="1" connectable="0">
          <mxGeometry x="644" y="-1050" width="170" height="20" as="geometry" />
        </mxCell>
        <mxCell id="lEz5kVDaH1w6bs4NxDob-7" value="10" style="rounded=0;whiteSpace=wrap;html=1;fontSize=16;fontFamily=Helvetica;" parent="lEz5kVDaH1w6bs4NxDob-6" vertex="1">
          <mxGeometry y="0.75" width="20" height="19.25" as="geometry" />
        </mxCell>
        <mxCell id="lEz5kVDaH1w6bs4NxDob-8" value="/verify-password" style="text;html=1;strokeColor=none;fillColor=none;align=left;verticalAlign=middle;whiteSpace=wrap;rounded=0;fontSize=12;fontFamily=Helvetica;" parent="lEz5kVDaH1w6bs4NxDob-6" vertex="1">
          <mxGeometry x="25" width="145" height="20" as="geometry" />
        </mxCell>
        <mxCell id="lEz5kVDaH1w6bs4NxDob-9" style="edgeStyle=none;curved=1;rounded=0;orthogonalLoop=1;jettySize=auto;html=1;exitX=1;exitY=1;exitDx=0;exitDy=0;fontSize=12;startSize=8;endSize=8;dashed=1;entryX=0;entryY=0;entryDx=0;entryDy=0;fontFamily=Helvetica;" parent="1" source="lEz5kVDaH1w6bs4NxDob-10" target="lEz5kVDaH1w6bs4NxDob-14" edge="1">
          <mxGeometry relative="1" as="geometry">
            <mxPoint x="624" y="-1010.7142857142858" as="targetPoint" />
          </mxGeometry>
        </mxCell>
        <mxCell id="lEz5kVDaH1w6bs4NxDob-10" value="11" style="rounded=0;whiteSpace=wrap;html=1;fontSize=16;fontFamily=Helvetica;" parent="1" vertex="1">
          <mxGeometry x="464" y="-1030" width="20" height="19.25" as="geometry" />
        </mxCell>
        <mxCell id="lEz5kVDaH1w6bs4NxDob-11" style="edgeStyle=none;curved=1;rounded=0;orthogonalLoop=1;jettySize=auto;html=1;exitX=0;exitY=1;exitDx=0;exitDy=0;fontSize=12;startSize=8;endSize=8;entryX=1;entryY=0;entryDx=0;entryDy=0;dashed=1;fontFamily=Helvetica;" parent="1" source="lEz5kVDaH1w6bs4NxDob-7" target="lEz5kVDaH1w6bs4NxDob-10" edge="1">
          <mxGeometry relative="1" as="geometry">
            <mxPoint x="504" y="-1030" as="targetPoint" />
          </mxGeometry>
        </mxCell>
        <mxCell id="lEz5kVDaH1w6bs4NxDob-12" value="send password" style="text;html=1;strokeColor=none;fillColor=none;align=right;verticalAlign=middle;whiteSpace=wrap;rounded=0;fontSize=12;fontFamily=Helvetica;" parent="1" vertex="1">
          <mxGeometry x="314" y="-1030.37" width="145" height="20" as="geometry" />
        </mxCell>
        <mxCell id="lEz5kVDaH1w6bs4NxDob-13" value="" style="group;fontFamily=Helvetica;fillColor=none;" parent="1" vertex="1" connectable="0">
          <mxGeometry x="644" y="-1010" width="170" height="30" as="geometry" />
        </mxCell>
        <mxCell id="lEz5kVDaH1w6bs4NxDob-14" value="12" style="rounded=0;whiteSpace=wrap;html=1;fontSize=16;fontFamily=Helvetica;" parent="lEz5kVDaH1w6bs4NxDob-13" vertex="1">
          <mxGeometry width="20" height="30" as="geometry" />
        </mxCell>
        <mxCell id="lEz5kVDaH1w6bs4NxDob-15" value="create access and refresh tokens" style="text;html=1;strokeColor=none;fillColor=none;align=left;verticalAlign=middle;whiteSpace=wrap;rounded=0;fontSize=12;fontFamily=Helvetica;" parent="lEz5kVDaH1w6bs4NxDob-13" vertex="1">
          <mxGeometry x="25" width="145" height="30" as="geometry" />
        </mxCell>
        <mxCell id="lEz5kVDaH1w6bs4NxDob-16" style="edgeStyle=none;curved=1;rounded=0;orthogonalLoop=1;jettySize=auto;html=1;fontSize=12;startSize=8;endSize=8;exitX=0;exitY=1;exitDx=0;exitDy=0;entryX=1;entryY=0;entryDx=0;entryDy=0;fontFamily=Helvetica;" parent="1" source="lEz5kVDaH1w6bs4NxDob-23" target="lEz5kVDaH1w6bs4NxDob-17" edge="1">
          <mxGeometry relative="1" as="geometry">
            <mxPoint x="164" y="-910" as="targetPoint" />
          </mxGeometry>
        </mxCell>
        <mxCell id="lEz5kVDaH1w6bs4NxDob-17" value="15" style="rounded=0;whiteSpace=wrap;html=1;fontSize=16;fontFamily=Helvetica;" parent="1" vertex="1">
          <mxGeometry x="154" y="-899.25" width="20" height="19.25" as="geometry" />
        </mxCell>
        <mxCell id="lEz5kVDaH1w6bs4NxDob-18" value="tokens are now in cookies" style="text;html=1;strokeColor=none;fillColor=none;align=right;verticalAlign=middle;whiteSpace=wrap;rounded=0;fontSize=12;fontFamily=Helvetica;" parent="1" vertex="1">
          <mxGeometry x="14" y="-900" width="130" height="20" as="geometry" />
        </mxCell>
        <mxCell id="lEz5kVDaH1w6bs4NxDob-19" value="" style="group;fontFamily=Helvetica;" parent="1" vertex="1" connectable="0">
          <mxGeometry x="644" y="-975" width="170" height="30" as="geometry" />
        </mxCell>
        <mxCell id="lEz5kVDaH1w6bs4NxDob-20" value="13" style="rounded=0;whiteSpace=wrap;html=1;fontSize=16;fontFamily=Helvetica;" parent="lEz5kVDaH1w6bs4NxDob-19" vertex="1">
          <mxGeometry y="0.75" width="20" height="29.25" as="geometry" />
        </mxCell>
        <mxCell id="lEz5kVDaH1w6bs4NxDob-21" value="save tokens to database" style="text;html=1;strokeColor=none;fillColor=none;align=left;verticalAlign=middle;whiteSpace=wrap;rounded=0;fontSize=12;fontFamily=Helvetica;" parent="lEz5kVDaH1w6bs4NxDob-19" vertex="1">
          <mxGeometry x="25" width="145" height="30" as="geometry" />
        </mxCell>
        <mxCell id="lEz5kVDaH1w6bs4NxDob-22" value="" style="group;fontFamily=Helvetica;" parent="1" vertex="1" connectable="0">
          <mxGeometry x="644" y="-940" width="170" height="40" as="geometry" />
        </mxCell>
        <mxCell id="lEz5kVDaH1w6bs4NxDob-23" value="14" style="rounded=0;whiteSpace=wrap;html=1;fontSize=16;fontFamily=Helvetica;" parent="lEz5kVDaH1w6bs4NxDob-22" vertex="1">
          <mxGeometry y="0.75" width="20" height="39.25" as="geometry" />
        </mxCell>
        <mxCell id="lEz5kVDaH1w6bs4NxDob-24" value="set httpOnly, secure, cookie on client with tokens" style="text;html=1;strokeColor=none;fillColor=none;align=left;verticalAlign=middle;whiteSpace=wrap;rounded=0;fontSize=12;fontFamily=Helvetica;" parent="lEz5kVDaH1w6bs4NxDob-22" vertex="1">
          <mxGeometry x="25" width="145" height="40" as="geometry" />
        </mxCell>
        <mxCell id="clRHQzc01Emq2DQamabk-5" value="" style="group;fontFamily=Helvetica;" parent="1" vertex="1" connectable="0">
          <mxGeometry x="24" y="-1100.75" width="150" height="40" as="geometry" />
        </mxCell>
        <mxCell id="clRHQzc01Emq2DQamabk-2" value="client sends email, password and&lt;br style=&quot;border-color: var(--border-color);&quot;&gt;&lt;span style=&quot;background-color: rgb(255, 255, 255);&quot;&gt;displayName&lt;/span&gt;" style="text;html=1;strokeColor=none;fillColor=none;align=right;verticalAlign=middle;whiteSpace=wrap;rounded=0;fontSize=12;fontFamily=Helvetica;container=0;" parent="clRHQzc01Emq2DQamabk-5" vertex="1">
          <mxGeometry width="120" height="40" as="geometry" />
        </mxCell>
        <mxCell id="clRHQzc01Emq2DQamabk-3" value="1" style="rounded=0;whiteSpace=wrap;html=1;fontSize=16;container=0;fontFamily=Helvetica;" parent="clRHQzc01Emq2DQamabk-5" vertex="1">
          <mxGeometry x="130" width="20" height="20" as="geometry" />
        </mxCell>
      </root>
    </mxGraphModel>
  </diagram>
  <diagram id="YzWKhDz0Di-Uwy4HWuqO" name="☑️ /refresh-tokens">
    <mxGraphModel dx="1059" dy="1872" grid="1" gridSize="10" guides="1" tooltips="1" connect="1" arrows="1" fold="1" page="1" pageScale="1" pageWidth="827" pageHeight="1169" math="0" shadow="0">
      <root>
        <mxCell id="0" />
        <mxCell id="1" parent="0" />
        <mxCell id="tapBRXu8qmLF1FgVUDWE-2" value="Client" style="rounded=0;whiteSpace=wrap;html=1;fontFamily=Helvetica;" parent="1" vertex="1">
          <mxGeometry x="100" y="-1160" width="120" height="40" as="geometry" />
        </mxCell>
        <mxCell id="tapBRXu8qmLF1FgVUDWE-3" style="edgeStyle=none;curved=1;rounded=0;orthogonalLoop=1;jettySize=auto;html=1;fontSize=12;startSize=8;endSize=8;fontFamily=Helvetica;" parent="1" source="tapBRXu8qmLF1FgVUDWE-4" edge="1">
          <mxGeometry relative="1" as="geometry">
            <mxPoint x="474" y="-840" as="targetPoint" />
          </mxGeometry>
        </mxCell>
        <mxCell id="tapBRXu8qmLF1FgVUDWE-4" value="User" style="rounded=0;whiteSpace=wrap;html=1;fontFamily=Helvetica;" parent="1" vertex="1">
          <mxGeometry x="414" y="-1160" width="120" height="40" as="geometry" />
        </mxCell>
        <mxCell id="tapBRXu8qmLF1FgVUDWE-5" style="edgeStyle=none;curved=1;rounded=0;orthogonalLoop=1;jettySize=auto;html=1;fontSize=12;startSize=8;endSize=8;fontFamily=Helvetica;" parent="1" source="tapBRXu8qmLF1FgVUDWE-6" edge="1">
          <mxGeometry relative="1" as="geometry">
            <mxPoint x="654" y="-840" as="targetPoint" />
          </mxGeometry>
        </mxCell>
        <mxCell id="tapBRXu8qmLF1FgVUDWE-6" value="Identity" style="rounded=0;whiteSpace=wrap;html=1;fontFamily=Helvetica;" parent="1" vertex="1">
          <mxGeometry x="594" y="-1160" width="120" height="40" as="geometry" />
        </mxCell>
        <mxCell id="tapBRXu8qmLF1FgVUDWE-7" style="edgeStyle=none;curved=1;rounded=0;orthogonalLoop=1;jettySize=auto;html=1;exitX=1;exitY=1;exitDx=0;exitDy=0;fontSize=12;startSize=8;endSize=8;entryX=0;entryY=0;entryDx=0;entryDy=0;dashed=1;fontFamily=Helvetica;" parent="1" target="tapBRXu8qmLF1FgVUDWE-10" edge="1" source="IbP6AfwU6v8DcUOFR_wN-3">
          <mxGeometry relative="1" as="geometry">
            <mxPoint x="624" y="-1081" as="targetPoint" />
            <mxPoint x="174" y="-1080.75" as="sourcePoint" />
          </mxGeometry>
        </mxCell>
        <mxCell id="tapBRXu8qmLF1FgVUDWE-9" value="" style="group;fontFamily=Helvetica;" parent="1" vertex="1" connectable="0">
          <mxGeometry x="644" y="-1080.75" width="170" height="30.75" as="geometry" />
        </mxCell>
        <mxCell id="tapBRXu8qmLF1FgVUDWE-10" value="2" style="rounded=0;whiteSpace=wrap;html=1;fontSize=16;fontFamily=Helvetica;" parent="tapBRXu8qmLF1FgVUDWE-9" vertex="1">
          <mxGeometry y="1.1531250000000002" width="20" height="29.596875" as="geometry" />
        </mxCell>
        <mxCell id="tapBRXu8qmLF1FgVUDWE-11" value="verify refresh token" style="text;html=1;strokeColor=none;fillColor=none;align=left;verticalAlign=middle;whiteSpace=wrap;rounded=0;fontSize=12;fontFamily=Helvetica;" parent="tapBRXu8qmLF1FgVUDWE-9" vertex="1">
          <mxGeometry x="25" width="145" height="30.75" as="geometry" />
        </mxCell>
        <mxCell id="tapBRXu8qmLF1FgVUDWE-12" value="" style="group;fillColor=none;fontFamily=Helvetica;" parent="1" vertex="1" connectable="0">
          <mxGeometry x="644" y="-1040" width="170" height="30" as="geometry" />
        </mxCell>
        <mxCell id="tapBRXu8qmLF1FgVUDWE-13" value="3" style="rounded=0;whiteSpace=wrap;html=1;fontSize=16;fontFamily=Helvetica;" parent="tapBRXu8qmLF1FgVUDWE-12" vertex="1">
          <mxGeometry width="20" height="30" as="geometry" />
        </mxCell>
        <mxCell id="tapBRXu8qmLF1FgVUDWE-14" value="invalidate this refresh token in database" style="text;html=1;fillColor=none;align=left;verticalAlign=middle;whiteSpace=wrap;rounded=0;fontSize=12;fontFamily=Helvetica;" parent="tapBRXu8qmLF1FgVUDWE-12" vertex="1">
          <mxGeometry x="25" width="145" height="30" as="geometry" />
        </mxCell>
        <mxCell id="tapBRXu8qmLF1FgVUDWE-22" style="edgeStyle=none;curved=1;rounded=0;orthogonalLoop=1;jettySize=auto;html=1;fontSize=12;startSize=8;endSize=8;exitX=0;exitY=1;exitDx=0;exitDy=0;fontFamily=Helvetica;" parent="1" source="u92K-0VGBgOJDJhW-Hnc-11" edge="1">
          <mxGeometry relative="1" as="geometry">
            <mxPoint x="160" y="-880" as="targetPoint" />
            <mxPoint x="644" y="-850" as="sourcePoint" />
          </mxGeometry>
        </mxCell>
        <mxCell id="tapBRXu8qmLF1FgVUDWE-26" value="4" style="rounded=0;whiteSpace=wrap;html=1;fontSize=16;fontFamily=Helvetica;" parent="1" vertex="1">
          <mxGeometry x="644" y="-999.25" width="20" height="29.25" as="geometry" />
        </mxCell>
        <mxCell id="tapBRXu8qmLF1FgVUDWE-27" value="Check if user&amp;nbsp;" style="text;html=1;strokeColor=none;fillColor=none;align=left;verticalAlign=middle;whiteSpace=wrap;rounded=0;fontSize=12;fontFamily=Helvetica;" parent="1" vertex="1">
          <mxGeometry x="669" y="-1000" width="145" height="30" as="geometry" />
        </mxCell>
        <mxCell id="u92K-0VGBgOJDJhW-Hnc-1" value="" style="group" vertex="1" connectable="0" parent="1">
          <mxGeometry x="644" y="-960" width="138" height="20" as="geometry" />
        </mxCell>
        <mxCell id="u92K-0VGBgOJDJhW-Hnc-2" value="5" style="rounded=0;whiteSpace=wrap;html=1;fontSize=16;fontFamily=Helvetica;verticalAlign=middle;" vertex="1" parent="u92K-0VGBgOJDJhW-Hnc-1">
          <mxGeometry width="20" height="20" as="geometry" />
        </mxCell>
        <mxCell id="u92K-0VGBgOJDJhW-Hnc-3" value="Generate tokens" style="text;html=1;fillColor=none;align=left;verticalAlign=middle;whiteSpace=wrap;rounded=0;fontSize=12;fontFamily=Helvetica;spacingLeft=4;" vertex="1" parent="u92K-0VGBgOJDJhW-Hnc-1">
          <mxGeometry x="20" width="118" height="20" as="geometry" />
        </mxCell>
        <mxCell id="u92K-0VGBgOJDJhW-Hnc-9" value="" style="group" vertex="1" connectable="0" parent="1">
          <mxGeometry x="644" y="-930" width="138" height="20" as="geometry" />
        </mxCell>
        <mxCell id="u92K-0VGBgOJDJhW-Hnc-5" value="6" style="rounded=0;whiteSpace=wrap;html=1;fontSize=16;fontFamily=Helvetica;verticalAlign=middle;" vertex="1" parent="u92K-0VGBgOJDJhW-Hnc-9">
          <mxGeometry width="20" height="20" as="geometry" />
        </mxCell>
        <mxCell id="u92K-0VGBgOJDJhW-Hnc-6" value="Save tokens" style="text;html=1;fillColor=none;align=left;verticalAlign=middle;whiteSpace=wrap;rounded=0;fontSize=12;fontFamily=Helvetica;spacingLeft=4;container=0;" vertex="1" parent="u92K-0VGBgOJDJhW-Hnc-9">
          <mxGeometry x="20" width="118" height="20" as="geometry" />
        </mxCell>
        <mxCell id="u92K-0VGBgOJDJhW-Hnc-10" value="" style="group" vertex="1" connectable="0" parent="1">
          <mxGeometry x="644" y="-900" width="138" height="20" as="geometry" />
        </mxCell>
        <mxCell id="u92K-0VGBgOJDJhW-Hnc-11" value="7" style="rounded=0;whiteSpace=wrap;html=1;fontSize=16;fontFamily=Helvetica;verticalAlign=middle;" vertex="1" parent="u92K-0VGBgOJDJhW-Hnc-10">
          <mxGeometry width="20" height="20" as="geometry" />
        </mxCell>
        <mxCell id="u92K-0VGBgOJDJhW-Hnc-12" value="Generate tokens" style="text;html=1;fillColor=none;align=left;verticalAlign=middle;whiteSpace=wrap;rounded=0;fontSize=12;fontFamily=Helvetica;spacingLeft=4;" vertex="1" parent="u92K-0VGBgOJDJhW-Hnc-10">
          <mxGeometry x="20" width="118" height="20" as="geometry" />
        </mxCell>
        <mxCell id="u92K-0VGBgOJDJhW-Hnc-13" value="" style="edgeStyle=none;curved=1;rounded=0;orthogonalLoop=1;jettySize=auto;html=1;fontSize=12;startSize=8;endSize=8;fontFamily=Helvetica;" edge="1" parent="1" source="tapBRXu8qmLF1FgVUDWE-2">
          <mxGeometry relative="1" as="geometry">
            <mxPoint x="160" y="-840" as="targetPoint" />
            <mxPoint x="164" y="-1120" as="sourcePoint" />
          </mxGeometry>
        </mxCell>
        <mxCell id="IbP6AfwU6v8DcUOFR_wN-4" value="" style="group" parent="1" vertex="1" connectable="0">
          <mxGeometry x="6" y="-1110.75" width="164" height="60.75" as="geometry" />
        </mxCell>
        <mxCell id="IbP6AfwU6v8DcUOFR_wN-2" value="after getting 401 from /me client sends request to /refresh-tokens" style="text;html=1;strokeColor=none;fillColor=none;align=right;verticalAlign=middle;whiteSpace=wrap;rounded=0;fontSize=12;fontFamily=Helvetica;container=0;" parent="IbP6AfwU6v8DcUOFR_wN-4" vertex="1">
          <mxGeometry width="134" height="60.75" as="geometry" />
        </mxCell>
        <mxCell id="IbP6AfwU6v8DcUOFR_wN-3" value="1" style="rounded=0;whiteSpace=wrap;html=1;fontSize=16;container=0;fontFamily=Helvetica;" parent="IbP6AfwU6v8DcUOFR_wN-4" vertex="1">
          <mxGeometry x="144" y="10" width="20" height="20" as="geometry" />
        </mxCell>
      </root>
    </mxGraphModel>
  </diagram>
</mxfile>
